<?xml version="1.0" standalone="no"?>
<!DOCTYPE svg PUBLIC "-//W3C//DTD SVG 20010904//EN"
 "http://www.w3.org/TR/2001/REC-SVG-20010904/DTD/svg10.dtd">
<svg version="1.0" xmlns="http://www.w3.org/2000/svg"
 width="512.000000pt" height="512.000000pt" viewBox="0 0 512.000000 512.000000"
 preserveAspectRatio="xMidYMid meet">

<g transform="translate(0.000000,512.000000) scale(0.100000,-0.100000)"
fill="#000000" stroke="none">
<path d="M380 2560 l0 -2180 2180 0 2180 0 0 2180 0 2180 -2180 0 -2180 0 0
-2180z m304 -17 c57 -592 59 -603 65 -603 3 1 22 26 41 57 72 115 209 214 365
263 57 18 101 24 232 28 l162 4 -5 27 c-4 24 -74 596 -74 606 0 3 32 5 70 5
49 0 70 -4 71 -12 0 -7 19 -159 42 -338 l42 -324 71 -36 c82 -41 147 -85 188
-129 l30 -31 589 0 589 0 65 59 c37 33 95 74 130 92 41 21 65 40 68 53 3 12
21 149 40 306 19 157 38 302 41 323 l6 37 69 0 c38 0 69 -3 69 -6 0 -7 -67
-553 -75 -604 l-4 -35 139 3 c159 4 250 -10 359 -56 95 -40 195 -114 253 -189
28 -35 52 -62 54 -60 4 4 94 894 94 930 0 14 10 17 70 17 66 0 70 -1 70 -22 0
-13 -20 -237 -45 -498 -25 -261 -51 -538 -58 -614 -9 -93 -10 -158 -4 -195 5
-31 6 -90 2 -131 -18 -216 -82 -368 -211 -509 -36 -39 -103 -136 -164 -236
-56 -93 -112 -180 -123 -192 -20 -23 -24 -23 -282 -23 -194 0 -265 3 -277 12
-9 7 -67 101 -128 208 -61 107 -126 210 -143 228 l-31 32 -576 0 -576 0 -41
-42 c-23 -24 -91 -126 -153 -228 -61 -102 -119 -191 -128 -198 -12 -9 -83 -12
-277 -12 -259 0 -262 0 -282 23 -11 12 -69 108 -129 212 -59 105 -129 214
-156 243 -93 103 -155 246 -177 407 -6 44 -23 208 -36 365 -14 157 -43 472
-65 702 -22 229 -40 428 -40 442 0 25 1 26 68 26 l68 0 38 -387z"/>
<path d="M1240 2134 c-267 -57 -450 -307 -451 -614 -1 -188 57 -338 175 -456
106 -105 214 -149 396 -160 274 -18 495 92 597 296 160 319 44 745 -242 886
-38 19 -101 41 -140 49 -87 18 -249 18 -335 -1z m253 -127 c128 -71 116 -269
-21 -329 -152 -68 -313 91 -248 245 16 40 77 95 114 103 15 3 32 7 37 9 20 7
81 -8 118 -28z m-331 -337 c96 -65 115 -193 41 -281 -94 -111 -282 -71 -324
70 -25 84 24 191 105 227 46 21 137 13 178 -16z m676 -2 c86 -58 108 -187 45
-266 -43 -53 -85 -75 -146 -75 -93 -2 -172 64 -192 160 -14 69 36 160 107 197
49 25 135 17 186 -16z m-345 -332 c55 -30 90 -93 89 -161 0 -59 -17 -97 -59
-137 -105 -100 -295 -35 -310 106 -8 66 4 112 39 152 66 75 152 90 241 40z"/>
<path d="M1360 1871 c-16 -31 4 -63 37 -59 34 4 52 32 37 56 -16 26 -60 28
-74 3z"/>
<path d="M1036 1547 c-38 -27 2 -95 42 -71 24 16 28 55 6 71 -10 7 -21 13 -24
13 -3 0 -14 -6 -24 -13z"/>
<path d="M1718 1552 c-23 -5 -34 -48 -18 -67 18 -21 46 -18 64 7 24 34 -4 70
-46 60z"/>
<path d="M1366 1201 c-32 -35 13 -83 52 -55 26 18 28 37 6 58 -20 21 -37 20
-58 -3z"/>
<path d="M3574 2136 c-184 -42 -304 -137 -389 -308 -37 -77 -75 -229 -75 -308
0 -233 129 -466 304 -549 106 -51 176 -65 321 -65 211 0 336 44 452 161 225
226 228 658 6 903 -65 71 -131 114 -225 147 -91 32 -295 41 -394 19z m273
-108 c21 -20 23 -30 23 -116 l0 -95 -58 -59 c-78 -77 -95 -77 -175 1 l-62 60
0 96 c0 129 7 135 148 135 90 0 103 -2 124 -22z m-383 -409 c55 -49 79 -90 70
-122 -3 -13 -30 -48 -60 -78 l-55 -54 -88 -3 c-82 -4 -90 -2 -117 21 -29 25
-29 27 -29 132 0 139 6 145 140 145 l92 0 47 -41z m776 21 c17 -17 20 -33 20
-124 0 -145 -6 -151 -134 -151 l-95 0 -61 60 c-80 79 -80 98 -2 177 l59 58 96
0 c84 0 100 -3 117 -20z m-481 -324 c15 -8 46 -35 69 -60 l42 -46 0 -98 c0
-127 -7 -135 -123 -141 -154 -7 -182 18 -176 158 l4 80 50 52 c68 69 89 78
134 55z"/>
<path d="M3721 1894 c0 -11 3 -14 6 -6 3 7 2 16 -1 19 -3 4 -6 -2 -5 -13z"/>
<path d="M3338 1513 c7 -3 16 -2 19 1 4 3 -2 6 -13 5 -11 0 -14 -3 -6 -6z"/>
<path d="M3721 1134 c0 -11 3 -14 6 -6 3 7 2 16 -1 19 -3 4 -6 -2 -5 -13z"/>
<path d="M2112 1843 c38 -99 68 -239 68 -324 0 -88 -24 -223 -55 -305 -14 -37
-25 -70 -25 -75 0 -5 208 -9 475 -9 261 0 475 2 475 4 0 2 -11 33 -24 69 -77
204 -74 435 9 645 14 34 25 64 25 67 0 3 -220 5 -489 5 l-489 0 30 -77z m353
-268 c30 -29 32 -64 6 -96 -18 -22 -26 -24 -114 -24 -109 0 -137 14 -137 69 0
60 29 75 138 76 75 0 85 -2 107 -25z m409 4 c33 -26 36 -77 5 -105 -18 -16
-37 -19 -116 -19 -88 0 -96 2 -114 24 -26 32 -24 67 6 96 22 23 32 25 108 25
70 0 89 -3 111 -21z"/>
<path d="M1147 759 c11 -19 29 -49 39 -67 l19 -32 194 2 195 3 33 55 c18 30
31 56 29 58 -2 2 -33 -2 -67 -8 -116 -22 -343 -13 -443 17 -18 5 -18 4 1 -28z"/>
<path d="M3493 728 l35 -63 195 -3 194 -2 37 61 37 61 -38 -7 c-120 -22 -355
-23 -423 -1 -8 2 -28 7 -44 11 l-28 6 35 -63z"/>
</g>
</svg>
